<?xml version="1.0" encoding="UTF-8"?>
<svg id="Capa_1" data-name="Capa 1" xmlns="http://www.w3.org/2000/svg" viewBox="0 0 505.56 587.46">
  <defs>
    <style>
      .cls-1 {
        fill: #1d1d1b;
        stroke: #1d1d1b;
        stroke-miterlimit: 10;
      }
    </style>
  </defs>
  <path class="cls-1" d="M187.67,357.94c0-1.95-.1-3.88-.3-5.77,.68,.03,1.37,.04,2.06,.04,30.28,0,54.82-24.55,54.82-54.82s-24.55-54.82-54.82-54.82c-1.62,0-3.22,.07-4.8,.21,.28-2.23,.42-4.51,.42-6.82,0-30.28-24.55-54.82-54.82-54.82s-54.82,24.55-54.82,54.82c0,2.24,.14,4.44,.4,6.61-.13,0-.26,0-.4,0-30.28,0-54.82,24.55-54.82,54.82s24.55,54.82,54.82,54.82c.98,0,1.96-.03,2.93-.08-.2,1.91-.31,3.85-.31,5.81,0,30.28,24.55,54.82,54.82,54.82s54.82-24.55,54.82-54.82Zm-112.27-35.04c-14.09,0-25.51-11.42-25.51-25.51s11.42-25.51,25.51-25.51,25.51,11.42,25.51,25.51-11.42,25.51-25.51,25.51Zm54.82-112.45c14.09,0,25.51,11.42,25.51,25.51s-11.42,25.51-25.51,25.51-25.51-11.42-25.51-25.51,11.42-25.51,25.51-25.51Zm2.63,173.01c-14.09,0-25.51-11.42-25.51-25.51s11.42-25.51,25.51-25.51,25.51,11.42,25.51,25.51-11.42,25.51-25.51,25.51Zm31.07-86.07c0-14.09,11.42-25.51,25.51-25.51s25.51,11.42,25.51,25.51-11.42,25.51-25.51,25.51-25.51-11.42-25.51-25.51Z"/>
  <circle class="cls-1" cx="75.4" cy="299.25" r="10.7"/>
  <circle class="cls-1" cx="189.43" cy="295.83" r="10.7" transform="translate(-44.94 34.16) rotate(-9.22)"/>
  <circle class="cls-1" cx="130.22" cy="235.95" r="19.96" transform="translate(-50.73 36.23) rotate(-13.28)"/>
  <circle class="cls-1" cx="132.85" cy="357.94" r="19.96" transform="translate(-214.19 198.77) rotate(-45)"/>
  <path class="cls-1" d="M436.78,242.55c-1.62,0-3.22,.07-4.8,.21,.28-2.23,.42-4.51,.42-6.82,0-30.28-24.55-54.82-54.82-54.82s-54.82,24.55-54.82,54.82c0,2.24,.14,4.44,.4,6.61-.13,0-.26,0-.4,0-30.28,0-54.82,24.55-54.82,54.82s24.55,54.82,54.82,54.82c.98,0,1.96-.03,2.93-.08-.2,1.91-.31,3.85-.31,5.81,0,30.28,24.55,54.82,54.82,54.82s54.82-24.55,54.82-54.82c0-1.95-.1-3.88-.3-5.77,.68,.03,1.37,.04,2.06,.04,30.28,0,54.82-24.55,54.82-54.82s-24.55-54.82-54.82-54.82Zm-114.03,80.34c-14.09,0-25.51-11.42-25.51-25.51s11.42-25.51,25.51-25.51,25.51,11.42,25.51,25.51-11.42,25.51-25.51,25.51Zm54.82-112.45c14.09,0,25.51,11.42,25.51,25.51s-11.42,25.51-25.51,25.51-25.51-11.42-25.51-25.51,11.42-25.51,25.51-25.51Zm2.63,173.01c-14.09,0-25.51-11.42-25.51-25.51s11.42-25.51,25.51-25.51,25.51,11.42,25.51,25.51-11.42,25.51-25.51,25.51Zm56.58-60.56c-14.09,0-25.51-11.42-25.51-25.51s11.42-25.51,25.51-25.51,25.51,11.42,25.51,25.51-11.42,25.51-25.51,25.51Z"/>
  <circle class="cls-1" cx="322.75" cy="299.25" r="10.7"/>
  <circle class="cls-1" cx="436.78" cy="295.83" r="10.7"/>
  <circle class="cls-1" cx="377.57" cy="235.95" r="19.96" transform="translate(-44.11 93.06) rotate(-13.28)"/>
  <circle class="cls-1" cx="380.2" cy="357.94" r="19.96"/>
  <path class="cls-1" d="M317.42,407.57c-1.62,0-3.22,.07-4.8,.21,.28-2.23,.42-4.51,.42-6.82,0-30.28-24.55-54.82-54.82-54.82s-54.82,24.55-54.82,54.82c0,2.24,.14,4.44,.4,6.61-.13,0-.26,0-.4,0-30.28,0-54.82,24.55-54.82,54.82s24.55,54.82,54.82,54.82c.98,0,1.96-.03,2.93-.08-.2,1.91-.31,3.85-.31,5.81,0,30.28,24.55,54.82,54.82,54.82s54.82-24.55,54.82-54.82c0-1.95-.1-3.88-.3-5.77,.68,.03,1.37,.04,2.06,.04,30.28,0,54.82-24.55,54.82-54.82s-24.55-54.82-54.82-54.82Zm-114.03,80.34c-14.09,0-25.51-11.42-25.51-25.51s11.42-25.51,25.51-25.51,25.51,11.42,25.51,25.51-11.42,25.51-25.51,25.51Zm54.82-112.45c14.09,0,25.51,11.42,25.51,25.51s-11.42,25.51-25.51,25.51-25.51-11.42-25.51-25.51,11.42-25.51,25.51-25.51Zm2.63,173.01c-14.09,0-25.51-11.42-25.51-25.51s11.42-25.51,25.51-25.51,25.51,11.42,25.51,25.51-11.42,25.51-25.51,25.51Zm56.58-60.56c-14.09,0-25.51-11.42-25.51-25.51s11.42-25.51,25.51-25.51,25.51,11.42,25.51,25.51-11.42,25.51-25.51,25.51Z"/>
  <circle class="cls-1" cx="203.39" cy="464.26" r="10.7" transform="translate(-268.71 279.8) rotate(-45)"/>
  <circle class="cls-1" cx="317.42" cy="460.84" r="10.7" transform="translate(-69.72 56.8) rotate(-9.22)"/>
  <circle class="cls-1" cx="258.21" cy="400.96" r="19.96" transform="translate(-211.04 486.08) rotate(-67.5)"/>
  <circle class="cls-1" cx="260.84" cy="522.95" r="19.96" transform="translate(-322.12 563.81) rotate(-67.5)"/>
  <path class="cls-1" d="M201.2,186.03c.98,0,1.96-.03,2.93-.08-.2,1.91-.31,3.85-.31,5.81,0,30.28,24.55,54.82,54.82,54.82s54.82-24.55,54.82-54.82c0-1.95-.1-3.88-.3-5.77,.68,.03,1.37,.04,2.06,.04,30.28,0,54.82-24.55,54.82-54.82s-24.55-54.82-54.82-54.82c-1.62,0-3.22,.07-4.8,.21,.28-2.23,.42-4.51,.42-6.82,0-30.28-24.55-54.82-54.82-54.82s-54.82,24.55-54.82,54.82c0,2.24,.14,4.44,.4,6.61-.13,0-.26,0-.4,0-30.28,0-54.82,24.55-54.82,54.82s24.55,54.82,54.82,54.82Zm114.03-80.34c14.09,0,25.51,11.42,25.51,25.51s-11.42,25.51-25.51,25.51-25.51-11.42-25.51-25.51,11.42-25.51,25.51-25.51Zm-56.58,111.58c-14.09,0-25.51-11.42-25.51-25.51s11.42-25.51,25.51-25.51,25.51,11.42,25.51,25.51-11.42,25.51-25.51,25.51Zm-2.63-173.01c14.09,0,25.51,11.42,25.51,25.51s-11.42,25.51-25.51,25.51-25.51-11.42-25.51-25.51,11.42-25.51,25.51-25.51Zm-54.82,61.43c14.09,0,25.51,11.42,25.51,25.51s-11.42,25.51-25.51,25.51-25.51-11.42-25.51-25.51,11.42-25.51,25.51-25.51Z"/>
  <circle class="cls-1" cx="201.2" cy="133.08" r="10.7" transform="translate(-35.17 181.25) rotate(-45)"/>
  <circle class="cls-1" cx="315.23" cy="129.65" r="10.7" transform="translate(-16.7 52.17) rotate(-9.22)"/>
  <circle class="cls-1" cx="256.02" cy="69.78" r="19.96" transform="translate(93.58 279.61) rotate(-67.5)"/>
  <circle class="cls-1" cx="258.65" cy="191.76" r="19.96" transform="translate(-17.49 357.34) rotate(-67.5)"/>
</svg>